# xmcd
#
# Track frame offsets:
#	150
#	18017
#	32615
#	53429
#	73709
#	89462
#	107386
#	120557
#	137910
#	150703
#	168628
#
# Disc length: 2455 seconds
# Revision: 0
# Processed by: cddbd v1.5.2PL0 Copyright (c) Steve Scherf et al.
# Submitted via: dBpowerAMP V12.0
#
DISCID=8309950b
DTITLE=Bill Jackson - The Wayside Ballads, Vol. 2
DYEAR=2016
DGENRE=Country
TTITLE0=Pink Jesus
TTITLE1=Gippsland Boy
TTITLE2=Silver Screen Cowboy's
TTITLE3=Three China Ducks
TTITLE4=Double Shot
TTITLE5=Rollin' Into Rosine
TTITLE6=Halfway House Of The Broken
TTITLE7=Every Day's A Drinkin' Day
TTITLE8=Ghost Of His Own
TTITLE9=Time Will Judge
TTITLE10=Come As You Are
EXTD=
EXTT0=
EXTT1=
EXTT2=
EXTT3=
EXTT4=
EXTT5=
EXTT6=
EXTT7=
EXTT8=
EXTT9=
EXTT10=
PLAYORDER=
